# xmcd CD database file
#
# Track frame offsets:
#	150
#	21856
#	35640
#	50983
#	61434
#	81586
#	96371
#	112738
#	126214
#	139885
#	157415
#	168861
#	183738
#	200866
#
# Disc length: 2897 seconds
#
# Revision: 0
# Processed by: cddbd v1.5.2PL0 Copyright (c) Steve Scherf et al.
# Submitted via: CDex 1.70beta2
#
DISCID=da0b4f0e
DTITLE=Jonny Hill - Hallo Teddybär
DYEAR=2006
DGENRE=Country
TTITLE0=Ruf Teddybär 1-4
TTITLE1=Suchst Du Gold
TTITLE2=Bis ans Ende der Welt
TTITLE3=Rauch in den Haaren
TTITLE4=Hallo Teddybär
TTITLE5=Darling (Duett mit Lind Feller)
TTITLE6=Nimm mich fest in Deine Arme
TTITLE7=Ich hab noch viele Träume
TTITLE8=Stell Dir einmal vor
TTITLE9=Deine Augen
TTITLE10=Lichter auf den Hügeln
TTITLE11=Lass mich sein wie ich bin
TTITLE12=Das hab ich beim Friseur gehört
TTITLE13=Terra Libre
EXTD=YEAR: 2006
EXTT0=
EXTT1=
EXTT2=
EXTT3=
EXTT4=
EXTT5=
EXTT6=
EXTT7=
EXTT8=
EXTT9=
EXTT10=
EXTT11=
EXTT12=
EXTT13=
PLAYORDER=
